# Made in Blockbench 5.1.5
mtllib Hook.mtl

o Head
v -4.119268662433522e-18 0.4962500000000001 -0.0007917960675006366
v -4.119268662433522e-18 0.66375 -0.0007917960675006366
v -4.8053479234489527e-17 0.4962500000000001 -0.0428335921350011
v -6.23524414653586e-17 0.643125 -0.055333592135001095
v -6.23524414653586e-17 0.56625 -0.055333592135001095
v -4.8053479234489527e-17 0.5346875000000001 -0.0428335921350011
v -0.03972051613422341 0.4962500000000001 -0.013601052984216159
v -0.052220516134223405 0.643125 -0.016551902702963514
v -0.024548629021638634 0.4962500000000001 0.03369818893921575
v -0.032274053881012316 0.643125 0.04619818893921575
v -0.032274053881012316 0.56625 0.04619818893921575
v -0.052220516134223405 0.56625 -0.016551902702963514
v -0.024548629021638634 0.5346875000000001 0.03369818893921575
v -0.03972051613422341 0.5346875000000001 -0.013601052984216159
v 0.03972051613422341 0.4962500000000001 -0.013601052984216159
v 0.052220516134223405 0.643125 -0.016551902702963514
v 0.024548629021638634 0.4962500000000001 0.03369818893921575
v 0.032274053881012316 0.643125 0.04619818893921575
v 0.032274053881012316 0.56625 0.04619818893921575
v 0.052220516134223405 0.56625 -0.016551902702963514
v 0.024548629021638634 0.5346875000000001 0.03369818893921575
v 0.03972051613422341 0.5346875000000001 -0.013601052984216159
vt 0.2918620947020509 0.1969754882687138
vt 0.41950306550754424 0.1969754882687138
vt 0.3556825801047976 0.12066290520498468
vt 0.7113641957442752 0.19698252129180527
vt 0.7113641957442752 0.09388103142417947
vt 0.5435547606198108 0.09388103142417947
vt 0.5435547606198108 0.19698252129180527
vt 0.1678103995897846 0.4494933783386904
vt 9.644653201753748e-7 0.4494933783386904
vt 0.08390568202755239 0.345523279966942
vt 0.7113641957442752 0.09388103142417947
vt 0.6912799635847897 0.05155074493381273
vt 0.5636389927792962 0.05155074493381273
vt 0.5435547606198108 0.09388103142417947
vt 0.5636389927792962 0
vt 0.5636389927792962 0.05155074493381273
vt 0.6912799635847897 0.05155074493381273
vt 0.6912799635847897 0
vt 0.45894629466495834 0.09232112766431166
vt 0.35568258010479775 0.02764117573990288
vt 0.3556825801047976 0.12066290520498468
vt 0.08390568202755253 0.19698252129180527
vt 0.08390568202755253 0.09388103142417947
vt 0.2196663668597044 0.09388103142417947
vt 0.2196663668597044 0.19698252129180527
vt 0.08390568202755253 0.224844035193841
vt 0.2196663668597044 0.31065244872483555
vt 0.08390568202755239 0.345523279966942
vt 0.41950306550754424 0.1969754882687138
vt 0.45894629466495834 0.09232112766431166
vt 0.3556825801047976 0.12066290520498468
vt 0.6595094474474202 0.4218428960537626
vt 0.6595094474474202 0.3187414061861368
vt 0.49169972456244954 0.3187414061861368
vt 0.49169972456244954 0.4218428960537626
vt 0.2196663668597044 0.31065244872483555
vt 0.1678103995897846 0.4494933783386904
vt 0.08390568202755239 0.345523279966942
vt 0.6595094474474202 0.3187414061861368
vt 0.6516181239350679 0.27641111969577015
vt 0.5251279073932162 0.27641111969577015
vt 0.49169972456244954 0.3187414061861368
vt 0.08390568202755253 0.09388103142417947
vt 0.08390568202755253 0.05155074493381273
vt 0.18716939658771312 0.05155074493381273
vt 0.2196663668597044 0.09388103142417947
vt 0.5251279073932162 0.2248603747619572
vt 0.5251279073932162 0.27641111969577015
vt 0.6516181239350679 0.27641111969577015
vt 0.6516181239350679 0.2248603747619572
vt 0.18716939658771312 0
vt 0.18716939658771312 0.05155074493381273
vt 0.08390568202755253 0.05155074493381273
vt 0.08390568202755253 0
vt 0.35568258010479775 0.02764117573990288
vt 0.45894629466495834 0.09232112766431166
vt 0.3556825801047976 0.12066290520498468
vt 0.2196663668597044 0.09388103142417947
vt 0.08390568202755253 0.09388103142417947
vt 0.08390568202755253 0.19698252129180527
vt 0.2196663668597044 0.19698252129180527
vt 0.2196663668597044 0.31065244872483555
vt 0.08390568202755253 0.224844035193841
vt 0.08390568202755239 0.345523279966942
vt 0.45894629466495834 0.09232112766431166
vt 0.41950306550754424 0.1969754882687138
vt 0.3556825801047976 0.12066290520498468
vt 0.49169972456244954 0.3187414061861368
vt 0.6595094474474202 0.3187414061861368
vt 0.6595094474474202 0.4218428960537626
vt 0.49169972456244954 0.4218428960537626
vt 0.1678103995897846 0.4494933783386904
vt 0.2196663668597044 0.31065244872483555
vt 0.08390568202755239 0.345523279966942
vt 0.5251279073932162 0.27641111969577015
vt 0.6516181239350679 0.27641111969577015
vt 0.6595094474474202 0.3187414061861368
vt 0.49169972456244954 0.3187414061861368
vt 0.18716939658771312 0.05155074493381273
vt 0.08390568202755253 0.05155074493381273
vt 0.08390568202755253 0.09388103142417947
vt 0.2196663668597044 0.09388103142417947
vt 0.6516181239350679 0.27641111969577015
vt 0.5251279073932162 0.27641111969577015
vt 0.5251279073932162 0.2248603747619572
vt 0.6516181239350679 0.2248603747619572
vt 0.08390568202755253 0.05155074493381273
vt 0.18716939658771312 0.05155074493381273
vt 0.18716939658771312 0
vt 0.08390568202755253 0
vn 0 -1 0
vn -7.331132959152152e-17 0.9999784682656326 -0.006562240861082369
vn -3.8909593869507624e-16 -0.778814366452675 -0.6272544799416888
vn -4.1846368817785524e-16 0.6199735249579347 -0.7846227299481154
vn -6.247863828178205e-16 -0.19001481169972836 -0.9817812237635821
vn -5.89145016680534e-16 -0.18971500968558067 -0.9818392002257803
vn -0.5996997242968375 -0.7763359405473867 -0.19406892613888924
vn -0.7484394499444318 0.6169033956173875 -0.243451412488434
vn -0.37034345277474984 -0.7778586007740127 0.5077220934613459
vn -0.4629496368597316 0.6256758567424313 0.6278593441377354
vn -0.577879665861504 -0.21757479157433615 0.7865852158890229
vn -0.9326425580060576 -0.1959392782898573 -0.3029614797613182
vn -0.5773592527345665 -0.217472599660458 0.7869955283727509
vn -0.9324633082853349 -0.1961803031179112 -0.30335699657356363
vn 0.599699724296837 -0.7763359405473867 -0.19406892613888949
vn 0.7484394499444316 0.6169033956173877 -0.24345141248843444
vn 0.37034345277474984 -0.7778586007740127 0.5077220934613459
vn 0.4629496368597316 0.6256758567424313 0.6278593441377354
vn 0.577879665861504 -0.21757479157433615 0.7865852158890229
vn 0.9326425580060573 -0.1959392782898573 -0.30296147976131876
vn 0.5773592527345665 -0.217472599660458 0.7869955283727509
vn 0.9324633082853345 -0.1961803031179112 -0.3033569965735642
usemtl m_8ca2d769-26e7-8995-638a-e3397b0824e9
f 17/1/17 9/2/9 1/3/1
f 10/4/10 11/5/11 19/6/19 18/7/18
f 10/8/10 18/9/18 2/10/2
f 11/11/11 13/12/13 21/13/21 19/14/19
f 17/15/17 21/16/21 13/17/13 9/18/9
f 7/19/7 3/20/3 1/21/1
f 4/22/4 5/23/5 12/24/12 8/25/8
f 4/26/4 8/27/8 2/28/2
f 9/29/9 7/30/7 1/31/1
f 8/32/8 12/33/12 11/34/11 10/35/10
f 8/36/8 10/37/10 2/38/2
f 12/39/12 14/40/14 13/41/13 11/42/11
f 5/43/5 6/44/6 14/45/14 12/46/12
f 9/47/9 13/48/13 14/49/14 7/50/7
f 7/51/7 14/52/14 6/53/6 3/54/3
f 3/55/3 15/56/15 1/57/1
f 20/58/20 5/59/5 4/60/4 16/61/16
f 16/62/16 4/63/4 2/64/2
f 15/65/15 17/66/17 1/67/1
f 19/68/19 20/69/20 16/70/16 18/71/18
f 18/72/18 16/73/16 2/74/2
f 21/75/21 22/76/22 20/77/20 19/78/19
f 22/79/22 6/80/6 5/81/5 20/82/20
f 22/83/22 21/84/21 17/85/17 15/86/15
f 6/87/6 22/88/22 15/89/15 3/90/3
o Hook
v 0.02312499999999993 0.7114085345794945 0.0644864604782928
v 0.02312499999999996 0.6952796424941452 0.07631265344556444
v 0.023124999999999795 0.620648397595531 0.020170160302956992
v 0.02312499999999982 0.6114134253308304 0.03791037696652137
v 0.019999999999999823 0.7493217142241968 0.1186891072113181
v 0.019999999999999837 0.7244928169967213 0.1110785833669178
v 0.009999999999999832 0.6683974458913423 0.15656222252274704
v 0.009999999999999837 0.6605053102676118 0.1474200868990167
v -0.02312499999999993 0.7114085345794945 0.0644864604782928
v -0.02312499999999996 0.6952796424941452 0.07631265344556444
v -0.023124999999999795 0.620648397595531 0.020170160302956992
v -0.02312499999999982 0.6114134253308304 0.03791037696652137
v -0.019999999999999823 0.7493217142241968 0.1186891072113181
v -0.019999999999999837 0.7244928169967213 0.1110785833669178
v -0.009999999999999832 0.6683974458913423 0.15656222252274704
v -0.009999999999999837 0.6605053102676118 0.1474200868990167
vt 0.42769370408179574 0.7243158909428861
vt 0.571662094674793 0.7243158909428861
vt 0.571662094674793 0.7058543028587888
vt 0.42769370408179574 0.7058543028587888
vt 0.666141351001449 0.4847108808847279
vt 0.6661413510014489 0.44888636612745003
vt 0.33321444775514 0.44888636612745003
vt 0.3332144477551398 0.4847108808847279
vt 0.33292622274894534 0.4673307988292834
vt 0.3329262227489463 0.648596254354171
vt -6.804973644951025e-7 0.648596254354171
vt -6.804973635210894e-7 0.4673307988292834
vt 0.6664295760076423 0.6163837537110839
vt 0.9993564792539533 0.6163837537110839
vt 0.9993564792539525 0.4488867824367516
vt 0.6664295760076432 0.4488867824367516
vt 0.3104311617187894 0.9235276862430055
vt 0.022494380532792485 0.9235276862430055
vt -6.804973644951025e-7 0.8140711021101354
vt 0.3329262227489463 0.8140711021101354
vt 0.35570950878529584 0.6324664319957871
vt 0.6436462899712928 0.6324664319957871
vt 0.66614135100145 0.5622602674861948
vt 0.3332144477551387 0.5622602674861948
vt 0.8736272229272964 0.8126948350443168
vt 0.7296588323342992 0.8126948350443168
vt 0.6576746370377994 0.9743161684824203
vt 0.9456114182237962 0.9743161684824203
vt 0.7819785758292922 0.2656827217813933
vt 0.9259469664222896 0.2656827217813933
vt 0.9979311617187895 0.3934780837165921
vt 0.7099943805327924 0.3934780837165921
vt 0.6660521444560765 0.743023395018661
vt 0.5578877060526087 0.9242888505435486
vt 0.5290230780106701 0.8920763499004615
vt 0.6227529393108279 0.7245793786261291
vt 0.4255932947262282 1.000008764671798
vt 0.4441685826976709 0.9504206799059697
vt 0.5290230780106701 0.8920763499004615
vt 0.5578877060526087 0.9242888505435486
vt 0.33315497672488964 0.8383874312336945
vt 0.35546852640382864 0.8226253179707708
vt 0.4441685826976709 0.9504206799059697
vt 0.4255932947262282 1.000008764671798
vt 0.5290230780106701 0.8920763499004615
vt 0.5578877060526087 0.9242888505435486
vt 0.6660521444560765 0.743023395018661
vt 0.6227529393108279 0.7245793786261291
vt 0.5290230780106701 0.8920763499004615
vt 0.4441685826976709 0.9504206799059697
vt 0.4255932947262282 1.000008764671798
vt 0.5578877060526087 0.9242888505435486
vt 0.4441685826976709 0.9504206799059697
vt 0.35546852640382864 0.8226253179707708
vt 0.33315497672488964 0.8383874312336945
vt 0.4255932947262282 1.000008764671798
vn 0.7379508960237614 0.4524541967495682 -0.5007131662952662
vn 0.6934916813664527 -0.42427481936292893 0.5822887303821745
vn 0.5724603024045432 -0.2566012259228372 -0.7787457948687724
vn 0.5873297005727981 -0.7654899072449768 0.262809864219637
vn 0.8499871739153195 0.4727181808776276 0.23250661420096208
vn 0.8168231762913699 -0.5768483342840698 -0.006774799404540613
vn 0.5021719504005898 -0.2215204776858552 0.8359138772605096
vn 0.588572562044133 -0.8049474168106702 -0.07511321707019618
vn -0.7379508960237614 0.4524541967495682 -0.5007131662952662
vn -0.6934916813664527 -0.42427481936292893 0.5822887303821745
vn -0.5724603024045432 -0.2566012259228372 -0.7787457948687724
vn -0.5873297005727981 -0.7654899072449768 0.262809864219637
vn -0.8499871739153195 0.4727181808776276 0.23250661420096214
vn -0.8168231762913699 -0.5768483342840698 -0.0067747994045405675
vn -0.5021719504005898 -0.22152047768585514 0.8359138772605096
vn -0.588572562044133 -0.8049474168106702 -0.07511321707019614
usemtl m_8ca2d769-26e7-8995-638a-e3397b0824e9
f 29/91/29 37/92/37 38/93/38 30/94/30
f 34/95/34 33/96/33 25/97/25 26/98/26
f 33/99/33 31/100/31 23/101/23 25/102/25
f 24/103/24 32/104/32 34/105/34 26/106/26
f 35/107/35 27/108/27 23/109/23 31/110/31
f 28/111/28 36/112/36 32/113/32 24/114/24
f 37/115/37 29/116/29 27/117/27 35/118/35
f 30/119/30 38/120/38 36/121/36 28/122/28
f 25/123/25 23/124/23 24/125/24 26/126/26
f 27/127/27 28/128/28 24/129/24 23/130/23
f 29/131/29 30/132/30 28/133/28 27/134/27
f 32/135/32 31/136/31 33/137/33 34/138/34
f 32/139/32 36/140/36 35/141/35 31/142/31
f 36/143/36 38/144/38 37/145/37 35/146/35
o Hook
v -0.06766148982102013 0.7114085345794945 -0.011256976600476315
v -0.07797979596383703 0.6952796424941452 -0.01703550569032708
v -0.028995694869799957 0.620648397595531 0.010396909009747862
v -0.0444739630733662 0.6114134253308304 0.0017286623191720514
v -0.1134261412886842 0.7493217142241968 -0.0404680911616907
v -0.10678598962271252 0.7244928169967213 -0.03674942755239748
v -0.14158407075834406 0.6683974458913423 -0.06769865985524647
v -0.13360759393052132 0.6605053102676118 -0.06323161819684578
v -0.04506275740178588 0.7114085345794945 -0.051609916927593175
v -0.055381063544602795 0.6952796424941452 -0.057388446017444
v -0.0063969624505658546 0.620648397595531 -0.029956031317368695
v -0.021875230654132112 0.6114134253308304 -0.03862427800794453
v -0.0938812916288061 0.7493217142241968 -0.0753679314446024
v -0.08724113996283447 0.7244928169967213 -0.07164926783530932
v -0.1318116459284052 0.6683974458913423 -0.08514857999670224
v -0.12383516910058229 0.6605053102676118 -0.08068153833830134
vt 0.42769370408179574 0.7243158909428861
vt 0.571662094674793 0.7243158909428861
vt 0.571662094674793 0.7058543028587888
vt 0.42769370408179574 0.7058543028587888
vt 0.666141351001449 0.4847108808847279
vt 0.6661413510014489 0.44888636612745003
vt 0.33321444775514 0.44888636612745003
vt 0.3332144477551398 0.4847108808847279
vt 0.33292622274894534 0.4673307988292834
vt 0.3329262227489463 0.648596254354171
vt -6.804973644951025e-7 0.648596254354171
vt -6.804973635210894e-7 0.4673307988292834
vt 0.6664295760076423 0.6163837537110839
vt 0.9993564792539533 0.6163837537110839
vt 0.9993564792539525 0.4488867824367516
vt 0.6664295760076432 0.4488867824367516
vt 0.3104311617187894 0.9235276862430055
vt 0.022494380532792485 0.9235276862430055
vt -6.804973644951025e-7 0.8140711021101354
vt 0.3329262227489463 0.8140711021101354
vt 0.35570950878529584 0.6324664319957871
vt 0.6436462899712928 0.6324664319957871
vt 0.66614135100145 0.5622602674861948
vt 0.3332144477551387 0.5622602674861948
vt 0.8736272229272964 0.8126948350443168
vt 0.7296588323342992 0.8126948350443168
vt 0.6576746370377994 0.9743161684824203
vt 0.9456114182237962 0.9743161684824203
vt 0.7819785758292922 0.2656827217813933
vt 0.9259469664222896 0.2656827217813933
vt 0.9979311617187895 0.3934780837165921
vt 0.7099943805327924 0.3934780837165921
vt 0.6660521444560765 0.743023395018661
vt 0.5578877060526087 0.9242888505435486
vt 0.5290230780106701 0.8920763499004615
vt 0.6227529393108279 0.7245793786261291
vt 0.4255932947262282 1.000008764671798
vt 0.4441685826976709 0.9504206799059697
vt 0.5290230780106701 0.8920763499004615
vt 0.5578877060526087 0.9242888505435486
vt 0.33315497672488964 0.8383874312336945
vt 0.35546852640382864 0.8226253179707708
vt 0.4441685826976709 0.9504206799059697
vt 0.4255932947262282 1.000008764671798
vt 0.5290230780106701 0.8920763499004615
vt 0.5578877060526087 0.9242888505435486
vt 0.6660521444560765 0.743023395018661
vt 0.6227529393108279 0.7245793786261291
vt 0.5290230780106701 0.8920763499004615
vt 0.4441685826976709 0.9504206799059697
vt 0.4255932947262282 1.000008764671798
vt 0.5578877060526087 0.9242888505435486
vt 0.4441685826976709 0.9504206799059697
vt 0.35546852640382864 0.8226253179707708
vt 0.33315497672488964 0.8383874312336945
vt 0.4255932947262282 1.000008764671798
vn 0.07629175530247748 0.45245419674956944 0.8885182991455883
vn -0.8468993585390215 -0.42427481936292905 0.320550080581409
vn 0.39973633287910443 -0.2566012259228367 0.879981065154963
vn -0.5162823246128919 -0.7654899072449771 0.38402833645238293
vn -0.6181828806833451 0.4727181808776278 0.6280027448170807
vn -0.39320616905379313 -0.5768483342840677 0.7159852706946815
vn -0.9747034020162165 -0.22152047768586106 0.0296977450969171
vn -0.22205307400490432 -0.8049474168106693 0.5502291236337854
vn 0.7974487212603172 0.4524541967495689 -0.3992001212474607
vn -0.1691898259048486 -0.4242748193629301 -0.8895873652794538
vn 0.9591688602163653 -0.2566012259228382 -0.11895759095633732
vn 0.05768121031093657 -0.7654899072449771 -0.6408573007176729
vn 0.21246069566663991 0.47271818087762685 -0.8552180857913346
vn 0.4050281399121595 -0.5768483342840733 -0.7093646489027954
vn -0.48395963831684913 -0.2215204776858663 -0.846588298080035
vn 0.3531250379491926 -0.8049474168106757 -0.4768252968784287
usemtl m_8ca2d769-26e7-8995-638a-e3397b0824e9
f 45/147/45 53/148/53 54/149/54 46/150/46
f 50/151/50 49/152/49 41/153/41 42/154/42
f 49/155/49 47/156/47 39/157/39 41/158/41
f 40/159/40 48/160/48 50/161/50 42/162/42
f 51/163/51 43/164/43 39/165/39 47/166/47
f 44/167/44 52/168/52 48/169/48 40/170/40
f 53/171/53 45/172/45 43/173/43 51/174/51
f 46/175/46 54/176/54 52/177/52 44/178/44
f 41/179/41 39/180/39 40/181/40 42/182/42
f 43/183/43 44/184/44 40/185/40 39/186/39
f 45/187/45 46/188/46 44/189/44 43/190/43
f 48/191/48 47/192/47 49/193/49 50/194/50
f 48/195/48 52/196/52 51/197/51 47/198/47
f 52/199/52 54/200/54 53/201/53 51/202/51
o Hook
v 0.06766148982102013 0.7114085345794945 -0.011256976600476315
v 0.07797979596383703 0.6952796424941452 -0.01703550569032708
v 0.028995694869799957 0.620648397595531 0.010396909009747862
v 0.0444739630733662 0.6114134253308304 0.0017286623191720514
v 0.1134261412886842 0.7493217142241968 -0.0404680911616907
v 0.10678598962271252 0.7244928169967213 -0.03674942755239748
v 0.14158407075834406 0.6683974458913423 -0.06769865985524647
v 0.13360759393052132 0.6605053102676118 -0.06323161819684578
v 0.04506275740178588 0.7114085345794945 -0.051609916927593175
v 0.055381063544602795 0.6952796424941452 -0.057388446017444
v 0.0063969624505658546 0.620648397595531 -0.029956031317368695
v 0.021875230654132112 0.6114134253308304 -0.03862427800794453
v 0.0938812916288061 0.7493217142241968 -0.0753679314446024
v 0.08724113996283447 0.7244928169967213 -0.07164926783530932
v 0.1318116459284052 0.6683974458913423 -0.08514857999670224
v 0.12383516910058229 0.6605053102676118 -0.08068153833830134
vt 0.571662094674793 0.7058543028587888
vt 0.571662094674793 0.7243158909428861
vt 0.42769370408179574 0.7243158909428861
vt 0.42769370408179574 0.7058543028587888
vt 0.33321444775514 0.44888636612745003
vt 0.6661413510014489 0.44888636612745003
vt 0.666141351001449 0.4847108808847279
vt 0.3332144477551398 0.4847108808847279
vt -6.804973644951025e-7 0.648596254354171
vt 0.3329262227489463 0.648596254354171
vt 0.33292622274894534 0.4673307988292834
vt -6.804973635210894e-7 0.4673307988292834
vt 0.9993564792539525 0.4488867824367516
vt 0.9993564792539533 0.6163837537110839
vt 0.6664295760076423 0.6163837537110839
vt 0.6664295760076432 0.4488867824367516
vt -6.804973644951025e-7 0.8140711021101354
vt 0.022494380532792485 0.9235276862430055
vt 0.3104311617187894 0.9235276862430055
vt 0.3329262227489463 0.8140711021101354
vt 0.66614135100145 0.5622602674861948
vt 0.6436462899712928 0.6324664319957871
vt 0.35570950878529584 0.6324664319957871
vt 0.3332144477551387 0.5622602674861948
vt 0.6576746370377994 0.9743161684824203
vt 0.7296588323342992 0.8126948350443168
vt 0.8736272229272964 0.8126948350443168
vt 0.9456114182237962 0.9743161684824203
vt 0.9979311617187895 0.3934780837165921
vt 0.9259469664222896 0.2656827217813933
vt 0.7819785758292922 0.2656827217813933
vt 0.7099943805327924 0.3934780837165921
vt 0.5290230780106701 0.8920763499004615
vt 0.5578877060526087 0.9242888505435486
vt 0.6660521444560765 0.743023395018661
vt 0.6227529393108279 0.7245793786261291
vt 0.5290230780106701 0.8920763499004615
vt 0.4441685826976709 0.9504206799059697
vt 0.4255932947262282 1.000008764671798
vt 0.5578877060526087 0.9242888505435486
vt 0.4441685826976709 0.9504206799059697
vt 0.35546852640382864 0.8226253179707708
vt 0.33315497672488964 0.8383874312336945
vt 0.4255932947262282 1.000008764671798
vt 0.6660521444560765 0.743023395018661
vt 0.5578877060526087 0.9242888505435486
vt 0.5290230780106701 0.8920763499004615
vt 0.6227529393108279 0.7245793786261291
vt 0.4255932947262282 1.000008764671798
vt 0.4441685826976709 0.9504206799059697
vt 0.5290230780106701 0.8920763499004615
vt 0.5578877060526087 0.9242888505435486
vt 0.33315497672488964 0.8383874312336945
vt 0.35546852640382864 0.8226253179707708
vt 0.4441685826976709 0.9504206799059697
vt 0.4255932947262282 1.000008764671798
vn -0.07629175530247745 0.4524541967495692 0.888518299145588
vn 0.8468993585390217 -0.42427481936292893 0.32055008058140905
vn -0.39973633287910454 -0.2566012259228367 0.879981065154963
vn 0.516282324612892 -0.7654899072449771 0.3840283364523832
vn 0.6181828806833453 0.4727181808776277 0.6280027448170806
vn 0.39320616905379313 -0.5768483342840677 0.7159852706946815
vn 0.9747034020162165 -0.22152047768586106 0.02969774509691705
vn 0.22205307400490423 -0.8049474168106693 0.5502291236337854
vn -0.7974487212603173 0.45245419674956877 -0.3992001212474605
vn 0.16918982590484855 -0.4242748193629301 -0.8895873652794536
vn -0.9591688602163653 -0.2566012259228381 -0.11895759095633722
vn -0.057681210310936794 -0.7654899072449771 -0.640857300717673
vn -0.21246069566663991 0.4727181808776269 -0.8552180857913348
vn -0.4050281399121595 -0.5768483342840733 -0.7093646489027953
vn 0.48395963831684913 -0.22152047768586627 -0.8465882980800351
vn -0.3531250379491927 -0.8049474168106757 -0.4768252968784287
usemtl m_8ca2d769-26e7-8995-638a-e3397b0824e9
f 70/203/70 69/204/69 61/205/61 62/206/62
f 57/207/57 65/208/65 66/209/66 58/210/58
f 55/211/55 63/212/63 65/213/65 57/214/57
f 66/215/66 64/216/64 56/217/56 58/218/58
f 55/219/55 59/220/59 67/221/67 63/222/63
f 64/223/64 68/224/68 60/225/60 56/226/56
f 59/227/59 61/228/61 69/229/69 67/230/67
f 68/231/68 70/232/70 62/233/62 60/234/60
f 56/235/56 55/236/55 57/237/57 58/238/58
f 56/239/56 60/240/60 59/241/59 55/242/55
f 60/243/60 62/244/62 61/245/61 59/246/59
f 65/247/65 63/248/63 64/249/64 66/250/66
f 67/251/67 68/252/68 64/253/64 63/254/63
f 69/255/69 70/256/70 68/257/68 67/258/67