# Made in Blockbench 5.1.5
mtllib Arrow.mtl

o Arrow
v 0 0.0017656250000000007 0.0029418749999999996
v 0 0.001765625000000037 0.16649875
v 0 -0.004403125000000008 -0.03375
v 0 0.005465625 -0.0011006250000000013
v 0 -0.0010468749999999537 0.20942125
v 0 -0.009764374999999954 0.20942125
v 0 0.0002031250000000388 0.174790625
v 0 0.010729375000000037 0.174790625
v 0 0.010729375000000048 0.21625
v 0 -0.014270625 -0.0011006249999999968
v -0.004750625 -0.004403124999999999 0.002941875000000001
v -0.004750625 -0.004403124999999963 0.16649875
v -0.015625 -0.004403125 -0.001100624999999999
v -0.014358125 -0.006639374999999949 0.215274375
v -0.0105575 -0.005389374999999961 0.174790625
v 0.004750625 -0.004403124999999999 0.002941875000000001
v 0.004750625 -0.004403124999999963 0.16649875
v 0.015625 -0.004403125 -0.001100624999999999
v 0.014358125 -0.006639374999999949 0.215274375
v 0.0105575 -0.005389374999999961 0.174790625
v 0 -0.009106874999999962 0.174790625
v 0 -0.008778125000000001 0.0029418750000000018
v 0 -0.008778124999999965 0.16649875
vt 0.6755079454806517 0.9444627230575247
vt 0.6640639796369296 0.9444627230575247
vt 0.665762703933884 0.9333552676690295
vt 0.665762703933884 0.9333552676690295
vt 0.665762703933884 0.7142611915349628
vt 0.6590561404095081 0.7142611915349628
vt 0.6590561404095081 0.9333552676690295
vt 0.6347147591288671 0.822669468514152
vt 0.6222274498028051 0.9645941844073534
vt 0.6347147591288671 0.9645941844073534
vt 0.6347147591288671 0.7354110581054218
vt 0.6211256443788757 0.867638534147058
vt 0.6305831246802798 0.867638534147058
vt 0.6347147591288671 0.7849858939614375
vt 0.6211256443788757 0.37362944202895754
vt 0.6347147591288671 0.37362944202895754
vt 0.6347147591288671 0.3298936794571933
vt 0.6891147468247276 0.37362944202895754
vt 0.6755256320747363 0.37362944202895754
vt 0.6891147468247276 0.3298936794571933
vt 0.6255328660745928 0.609246140616627
vt 0.6347147591288671 0.609246140616627
vt 0.6347147591288671 0.5981386852281321
vt 0.6305831246802798 0.5981386852281321
vt 0.6347147591288671 0.609246140616627
vt 0.6255328660745928 0.609246140616627
vt 0.6222274498028051 0.6634765103561597
vt 0.6347147591288671 0.6556359043628488
vt 0.6523509358645698 0.9333552676690295
vt 0.655703538137039 0.9333552676690295
vt 0.655703538137039 0.7142611915349628
vt 0.6523509358645698 0.7142611915349628
vt 0.6755256320747363 0.37362944202895754
vt 0.6891147468247276 0.37362944202895754
vt 0.6880814305391383 0.37904460909406523
vt 0.6849831123761403 0.37904460909406523
vt 0.6881966662322181 0.609246140616627
vt 0.6840647600013359 0.609246140616627
vt 0.6865322714576393 0.5981386852281321
vt 0.6880814305391383 0.5981386852281321
vt 0.6799328537704536 0.609246140616627
vt 0.6881966662322181 0.609246140616627
vt 0.6891147468247276 0.6556359043628488
vt 0.6766274374986657 0.6634765103561597
vt 0.00045351873342175066 0.9699135672248009
vt 0.0042744140625 0.9699135672248009
vt 0.0042744140625 0.9999999999999999
vt 0 0.9950430402437002
vt 0.6590561404095081 0.7142611915349628
vt 0.665762703933884 0.7142611915349628
vt 0.665762703933884 0.9333552676690295
vt 0.6590561404095081 0.9333552676690295
vt 0.6222274498028051 0.9645941844073534
vt 0.6347147591288671 0.822669468514152
vt 0.6347147591288671 0.9645941844073534
vt 0.6305831246802798 0.867638534147058
vt 0.6211256443788757 0.867638534147058
vt 0.6347147591288671 0.7354110581054218
vt 0.6347147591288671 0.7849858939614375
vt 0.6347147591288671 0.37362944202895754
vt 0.6211256443788757 0.37362944202895754
vt 0.6347147591288671 0.3298936794571933
vt 0.6755256320747363 0.37362944202895754
vt 0.6891147468247276 0.37362944202895754
vt 0.6891147468247276 0.3298936794571933
vt 0.6347147591288671 0.5981386852281321
vt 0.6347147591288671 0.609246140616627
vt 0.6255328660745928 0.609246140616627
vt 0.6305831246802798 0.5981386852281321
vt 0.6222274498028051 0.6634765103561597
vt 0.6255328660745928 0.609246140616627
vt 0.6347147591288671 0.609246140616627
vt 0.6347147591288671 0.6556359043628488
vt 0.6590561404095081 0.7142611915349628
vt 0.655703538137039 0.7142611915349628
vt 0.655703538137039 0.9333552676690295
vt 0.6590561404095081 0.9333552676690295
vt 0.6849831123761403 0.5981386852281321
vt 0.6865322714576393 0.5981386852281321
vt 0.6840647600013359 0.609246140616627
vt 0.6799328537704536 0.609246140616627
vt 0.0513494140625001 0.9612527118157014
vt 0.034770778792647936 0.99609375
vt 0.0213913020475245 0.99609375
vt 0.013671875000000097 0.9733499347391715
vt 0.06640625 0.988865313891403
vt 0.06640625 0.9229920302721938
vt 0.07776463256619537 0.9227870423175611
vt 0.07852315128608775 1
vn 6.091235762724233e-17 0.7997145234551627 0.6003804468625559
vn 0.31796360309508337 0.9423313286337094 0.10445484278969684
vn 0 -0.00006893288377899858 -0.999999997624129
vn 3.901689331266193e-17 0.9152781766298133 0.4028223670368918
vn 0.3668552444707142 0.6482723220259005 0.6672032869369572
vn 4.240009167482499e-17 -0.720337605636306 0.6936236255392066
vn 0.49370788329164483 0.8665693583226449 0.07287024901812185
vn 1 0 0
vn 1 0 0
vn -0.008849106343474652 -0.9132961646622185 0.4071999618494623
vn -0.8012159627483879 -0.07446190656034384 0.5937241830248895
vn -0.9986527036990462 0.004194387402593846 0.05172218584806483
vn -0.8421917962215435 -0.03593158735364309 0.5379794600236866
vn -0.42760221645743746 -0.06023059965614701 0.9019582137470382
vn -0.9978766728720464 0.03955901245648795 0.05174195851803677
vn 0.7778206943498909 0.00138240413671448 0.6284847304428776
vn 0.9947082890263957 -0.0862889228718712 0.055764159921874355
vn 0.8092673372141964 0.0627412845572753 0.5840803952627988
vn 0.4276022164574376 -0.06023059965614701 0.9019582137470382
vn 0.9950110455631394 -0.0814298943745186 0.05763845512765729
vn -0.09637785326662676 -0.9949347778100148 -0.028567416821489777
vn -0.008553985504250019 -0.8248925972880854 0.5652247626133426
vn -0.10895701345796713 -0.9938247393451172 -0.02099420596094016
usemtl m_23f9c50a-bc1b-be0c-cd15-1e517b122cdb
f 8/1/8 7/2/7 2/3/2
f 2/4/2 1/5/1 11/6/11 12/7/12
f 5/8/5 14/9/14 6/10/6
f 4/11/4 13/12/13 11/13/11 1/14/1
f 13/15/13 4/16/4 3/17/3
f 10/18/10 13/19/13 3/20/3
f 15/21/15 7/22/7 2/23/2 12/24/12
f 7/25/7 15/26/15 14/27/14 5/28/5
f 17/29/17 23/30/23 22/31/22 16/32/16
f 13/33/13 10/34/10 22/35/22 11/36/11
f 20/37/20 21/38/21 23/39/23 17/40/17
f 15/41/15 21/42/21 6/43/6 14/44/14
f 7/45/7 8/46/8 9/47/9 5/48/5
f 16/49/16 1/50/1 2/51/2 17/52/17
f 19/53/19 5/54/5 6/55/6
f 16/56/16 18/57/18 4/58/4 1/59/1
f 4/60/4 18/61/18 3/62/3
f 18/63/18 10/64/10 3/65/3
f 2/66/2 7/67/7 20/68/20 17/69/17
f 19/70/19 20/71/20 7/72/7 5/73/5
f 11/74/11 22/75/22 23/76/23 12/77/12
f 12/78/12 23/79/23 21/80/21 15/81/15
f 18/82/18 16/83/16 22/84/22 10/85/10
f 6/86/6 21/87/21 20/88/20 19/89/19